ffmpeg started on 2025-07-06 at 17:37:06
Report written to "D:\Convert\FFMetrics\reports\psnr_report-6.txt"
Log level: 32
Command line:
ffmpeg -hide_banner -nostdin -i "G:\\\xc0\xed\xe8\xec\xe5\\\xce\xed\xe3\xee\xe8\xed\xe3\xe8\\!_37_\xc7\xe8\xec\xe0_2025\\JamClub\\\xc3\xee\xeb\xf3\xe1\xe0\xff \xf8\xea\xe0\xf2\xf3\xeb\xea\xe0\\JamClub_Ao_no_Hako_06_1080p_HEVC.mkv" -i "G:\\\xc0\xed\xe8\xec\xe5\\\xce\xed\xe3\xee\xe8\xed\xe3\xe8\\!_37_\xc7\xe8\xec\xe0_2025\\JamClub\\\xc3\xee\xeb\xf3\xe1\xe0\xff \xf8\xea\xe0\xf2\xf3\xeb\xea\xe0\\JamClub_Ao_no_Hako_06_1080p.mp4" -lavfi "[0:v]settb=AVTB,setpts=PTS-STARTPTS,format=pix_fmts=yuv420p10,fps=24000/1001,scale=1920:1080:flags=bicubic[main];[1:v]settb=AVTB,setpts=PTS-STARTPTS,format=pix_fmts=yuv420p,fps=24000/1001,scale=1920:1080:flags=bicubic[ref];[main][ref]psnr=eof_action=endall:stats_file='D\\:/Convert/FFMetrics/logs/psnr_logfile-6.txt'" -f null -
Input #0, matroska,webm, from 'G:\Аниме\Онгоинги\!_37_Зима_2025\JamClub\Голубая шкатулка\JamClub_Ao_no_Hako_06_1080p_HEVC.mkv':
  Metadata:
    COMPATIBLE_BRANDS: isomiso2avc1mp41
    MAJOR_BRAND     : isom
    MINOR_VERSION   : 512
    ENCODER         : Lavf61.7.100
  Duration: 00:23:59.25, start: -0.001000, bitrate: 1128 kb/s
  Stream #0:0: Video: hevc (Main 10), yuv420p10le(tv, bt709, progressive), 1920x1080 [SAR 1:1 DAR 16:9], 23.98 fps, 23.98 tbr, 1k tbn (default)
      Metadata:
        HANDLER_NAME    : VideoHandler
        VENDOR_ID       : [0][0][0][0]
        ENCODER         : Lavc61.19.100 libx265
        BPS             : 931496
        DURATION        : 00:23:59.187708333
        NUMBER_OF_FRAMES: 34506
        NUMBER_OF_BYTES : 167574734
        _STATISTICS_WRITING_APP: mkvpropedit v66.0.0 ('Josie') 64-bit
        _STATISTICS_WRITING_DATE_UTC: 2025-07-03 15:43:06
        _STATISTICS_TAGS: BPS DURATION NUMBER_OF_FRAMES NUMBER_OF_BYTES
  Stream #0:1(eng): Audio: aac (LC), 48000 Hz, stereo, fltp (default)
      Metadata:
        HANDLER_NAME    : SoundHandler
        VENDOR_ID       : [0][0][0][0]
        ENCODER         : Lavc61.19.100 aac
        BPS             : 193160
        DURATION        : 00:23:59.213000000
        NUMBER_OF_FRAMES: 67464
        NUMBER_OF_BYTES : 34749920
        _STATISTICS_WRITING_APP: mkvpropedit v66.0.0 ('Josie') 64-bit
        _STATISTICS_WRITING_DATE_UTC: 2025-07-03 15:43:06
        _STATISTICS_TAGS: BPS DURATION NUMBER_OF_FRAMES NUMBER_OF_BYTES
Input #1, mov,mp4,m4a,3gp,3g2,mj2, from 'G:\Аниме\Онгоинги\!_37_Зима_2025\JamClub\Голубая шкатулка\JamClub_Ao_no_Hako_06_1080p.mp4':
  Metadata:
    major_brand     : isom
    minor_version   : 512
    compatible_brands: isomiso2avc1mp41
    encoder         : Lavf60.16.100
  Duration: 00:23:59.23, start: 0.000000, bitrate: 4463 kb/s
  Stream #1:0[0x1](und): Video: h264 (High) (avc1 / 0x31637661), yuv420p(progressive), 1920x1080 [SAR 1:1 DAR 16:9], 4265 kb/s, 23.98 fps, 23.98 tbr, 90k tbn (default)
      Metadata:
        handler_name    : VideoHandler
        vendor_id       : [0][0][0][0]
  Stream #1:1[0x2](eng): Audio: aac (LC) (mp4a / 0x6134706D), 48000 Hz, stereo, fltp, 191 kb/s (default)
      Metadata:
        handler_name    : SoundHandler
        vendor_id       : [0][0][0][0]
Stream mapping:
  Stream #0:0 (hevc) -> settb:default
  Stream #1:0 (h264) -> settb:default
  psnr:default -> Stream #0:0 (wrapped_avframe)
  Stream #0:1 -> #0:1 (aac (native) -> pcm_s16le (native))
Output #0, null, to 'pipe:':
  Metadata:
    COMPATIBLE_BRANDS: isomiso2avc1mp41
    MAJOR_BRAND     : isom
    MINOR_VERSION   : 512
    encoder         : Lavf61.7.100
  Stream #0:0: Video: wrapped_avframe, yuv420p10le(tv, bt709, progressive), 1920x1080 [SAR 1:1 DAR 16:9], q=2-31, 200 kb/s, 23.98 fps, 23.98 tbn
      Metadata:
        encoder         : Lavc61.19.100 wrapped_avframe
  Stream #0:1(eng): Audio: pcm_s16le, 48000 Hz, stereo, s16, 1536 kb/s (default)
      Metadata:
        HANDLER_NAME    : SoundHandler
        VENDOR_ID       : [0][0][0][0]
        _STATISTICS_TAGS: BPS DURATION NUMBER_OF_FRAMES NUMBER_OF_BYTES
        BPS             : 193160
        DURATION        : 00:23:59.213000000
        NUMBER_OF_FRAMES: 67464
        NUMBER_OF_BYTES : 34749920
        _STATISTICS_WRITING_APP: mkvpropedit v66.0.0 ('Josie') 64-bit
        _STATISTICS_WRITING_DATE_UTC: 2025-07-03 15:43:06
        encoder         : Lavc61.19.100 pcm_s16le
frame=  106 fps=0.0 q=-0.0 size=N/A time=00:00:04.42 bitrate=N/A speed= 8.6x    frame=  260 fps=253 q=-0.0 size=N/A time=00:00:10.84 bitrate=N/A speed=10.6x    frame=  439 fps=286 q=-0.0 size=N/A time=00:00:18.30 bitrate=N/A speed=11.9x    frame=  685 fps=334 q=-0.0 size=N/A time=00:00:28.57 bitrate=N/A speed=13.9x    frame=  957 fps=372 q=-0.0 size=N/A time=00:00:39.91 bitrate=N/A speed=15.5x    frame= 1212 fps=393 q=-0.0 size=N/A time=00:00:50.55 bitrate=N/A speed=16.4x    frame= 1465 fps=407 q=-0.0 size=N/A time=00:01:01.10 bitrate=N/A speed=  17x    frame= 1726 fps=420 q=-0.0 size=N/A time=00:01:11.98 bitrate=N/A speed=17.5x    frame= 1987 fps=429 q=-0.0 size=N/A time=00:01:22.87 bitrate=N/A speed=17.9x    frame= 2227 fps=433 q=-0.0 size=N/A time=00:01:32.88 bitrate=N/A speed=  18x    frame= 2487 fps=439 q=-0.0 size=N/A time=00:01:43.72 bitrate=N/A speed=18.3x    frame= 2739 fps=443 q=-0.0 size=N/A time=00:01:54.23 bitrate=N/A speed=18.5x    frame= 2963 fps=442 q=-0.0 size=N/A time=00:02:03.58 bitrate=N/A speed=18.4x    frame= 3169 fps=440 q=-0.0 size=N/A time=00:02:12.17 bitrate=N/A speed=18.3x    frame= 3369 fps=436 q=-0.0 size=N/A time=00:02:20.51 bitrate=N/A speed=18.2x    frame= 3595 fps=436 q=-0.0 size=N/A time=00:02:29.94 bitrate=N/A speed=18.2x    frame= 3807 fps=435 q=-0.0 size=N/A time=00:02:38.78 bitrate=N/A speed=18.1x    frame= 3997 fps=431 q=-0.0 size=N/A time=00:02:46.70 bitrate=N/A speed=  18x    frame= 4177 fps=427 q=-0.0 size=N/A time=00:02:54.21 bitrate=N/A speed=17.8x    frame= 4383 fps=425 q=-0.0 size=N/A time=00:03:02.80 bitrate=N/A speed=17.7x    frame= 4583 fps=424 q=-0.0 size=N/A time=00:03:11.14 bitrate=N/A speed=17.7x    frame= 4787 fps=422 q=-0.0 size=N/A time=00:03:19.65 bitrate=N/A speed=17.6x    frame= 5037 fps=425 q=-0.0 size=N/A time=00:03:30.08 bitrate=N/A speed=17.7x    frame= 5312 fps=429 q=-0.0 size=N/A time=00:03:41.55 bitrate=N/A speed=17.9x    frame= 5560 fps=432 q=-0.0 size=N/A time=00:03:51.89 bitrate=N/A speed=  18x    frame= 5825 fps=435 q=-0.0 size=N/A time=00:04:02.95 bitrate=N/A speed=18.1x    frame= 6069 fps=436 q=-0.0 size=N/A time=00:04:13.12 bitrate=N/A speed=18.2x    frame= 6341 fps=439 q=-0.0 size=N/A time=00:04:24.47 bitrate=N/A speed=18.3x    frame= 6617 fps=443 q=-0.0 size=N/A time=00:04:35.98 bitrate=N/A speed=18.5x    frame= 6878 fps=445 q=-0.0 size=N/A time=00:04:46.86 bitrate=N/A speed=18.6x    frame= 7142 fps=447 q=-0.0 size=N/A time=00:04:57.88 bitrate=N/A speed=18.6x    frame= 7394 fps=448 q=-0.0 size=N/A time=00:05:08.39 bitrate=N/A speed=18.7x    frame= 7644 fps=449 q=-0.0 size=N/A time=00:05:18.81 bitrate=N/A speed=18.7x    frame= 7874 fps=449 q=-0.0 size=N/A time=00:05:28.41 bitrate=N/A speed=18.7x    frame= 8104 fps=449 q=-0.0 size=N/A time=00:05:38.00 bitrate=N/A speed=18.7x    frame= 8361 fps=451 q=-0.0 size=N/A time=00:05:48.76 bitrate=N/A speed=18.8x    frame= 8602 fps=451 q=-0.0 size=N/A time=00:05:58.77 bitrate=N/A speed=18.8x    frame= 8843 fps=452 q=-0.0 size=N/A time=00:06:08.82 bitrate=N/A speed=18.8x    frame= 9093 fps=452 q=-0.0 size=N/A time=00:06:19.25 bitrate=N/A speed=18.9x    frame= 9352 fps=454 q=-0.0 size=N/A time=00:06:30.05 bitrate=N/A speed=18.9x    frame= 9576 fps=453 q=-0.0 size=N/A time=00:06:39.39 bitrate=N/A speed=18.9x    frame= 9841 fps=454 q=-0.0 size=N/A time=00:06:50.45 bitrate=N/A speed=  19x    frame=10049 fps=453 q=-0.0 size=N/A time=00:06:59.12 bitrate=N/A speed=18.9x    frame=10268 fps=453 q=-0.0 size=N/A time=00:07:08.26 bitrate=N/A speed=18.9x    frame=10517 fps=453 q=-0.0 size=N/A time=00:07:18.64 bitrate=N/A speed=18.9x    frame=10787 fps=455 q=-0.0 size=N/A time=00:07:29.90 bitrate=N/A speed=  19x    frame=11047 fps=456 q=-0.0 size=N/A time=00:07:40.75 bitrate=N/A speed=  19x    frame=11262 fps=455 q=-0.0 size=N/A time=00:07:49.71 bitrate=N/A speed=  19x    frame=11505 fps=456 q=-0.0 size=N/A time=00:07:59.85 bitrate=N/A speed=  19x    frame=11712 fps=454 q=-0.0 size=N/A time=00:08:08.48 bitrate=N/A speed=18.9x    frame=11931 fps=454 q=-0.0 size=N/A time=00:08:17.62 bitrate=N/A speed=18.9x    frame=12172 fps=454 q=-0.0 size=N/A time=00:08:27.67 bitrate=N/A speed=18.9x    frame=12388 fps=454 q=-0.0 size=N/A time=00:08:36.68 bitrate=N/A speed=18.9x    frame=12631 fps=454 q=-0.0 size=N/A time=00:08:46.81 bitrate=N/A speed=18.9x    frame=12865 fps=454 q=-0.0 size=N/A time=00:08:56.57 bitrate=N/A speed=18.9x    frame=13113 fps=454 q=-0.0 size=N/A time=00:09:06.92 bitrate=N/A speed=18.9x    frame=13373 fps=455 q=-0.0 size=N/A time=00:09:17.76 bitrate=N/A speed=  19x    frame=13597 fps=455 q=-0.0 size=N/A time=00:09:27.10 bitrate=N/A speed=  19x    frame=13842 fps=455 q=-0.0 size=N/A time=00:09:37.32 bitrate=N/A speed=  19x    frame=14066 fps=455 q=-0.0 size=N/A time=00:09:46.66 bitrate=N/A speed=  19x    frame=14320 fps=455 q=-0.0 size=N/A time=00:09:57.26 bitrate=N/A speed=  19x    frame=14549 fps=455 q=-0.0 size=N/A time=00:10:06.81 bitrate=N/A speed=  19x    frame=14777 fps=455 q=-0.0 size=N/A time=00:10:16.32 bitrate=N/A speed=  19x    frame=14982 fps=454 q=-0.0 size=N/A time=00:10:24.87 bitrate=N/A speed=18.9x    frame=15255 fps=455 q=-0.0 size=N/A time=00:10:36.26 bitrate=N/A speed=  19x    frame=15501 fps=456 q=-0.0 size=N/A time=00:10:46.52 bitrate=N/A speed=  19x    frame=15744 fps=456 q=-0.0 size=N/A time=00:10:56.65 bitrate=N/A speed=  19x    frame=16013 fps=457 q=-0.0 size=N/A time=00:11:07.87 bitrate=N/A speed=19.1x    frame=16271 fps=457 q=-0.0 size=N/A time=00:11:18.63 bitrate=N/A speed=19.1x    frame=16529 fps=458 q=-0.0 size=N/A time=00:11:29.39 bitrate=N/A speed=19.1x    frame=16786 fps=459 q=-0.0 size=N/A time=00:11:40.11 bitrate=N/A speed=19.1x    frame=17052 fps=459 q=-0.0 size=N/A time=00:11:51.21 bitrate=N/A speed=19.2x    frame=17288 fps=459 q=-0.0 size=N/A time=00:12:01.05 bitrate=N/A speed=19.2x    frame=17523 fps=459 q=-0.0 size=N/A time=00:12:10.85 bitrate=N/A speed=19.2x    frame=17771 fps=460 q=-0.0 size=N/A time=00:12:21.19 bitrate=N/A speed=19.2x    frame=17989 fps=459 q=-0.0 size=N/A time=00:12:30.29 bitrate=N/A speed=19.1x    frame=18222 fps=459 q=-0.0 size=N/A time=00:12:40.00 bitrate=N/A speed=19.1x    frame=18445 fps=459 q=-0.0 size=N/A time=00:12:49.31 bitrate=N/A speed=19.1x    frame=18673 fps=459 q=-0.0 size=N/A time=00:12:58.81 bitrate=N/A speed=19.1x    frame=18914 fps=459 q=-0.0 size=N/A time=00:13:08.87 bitrate=N/A speed=19.1x    frame=19126 fps=458 q=-0.0 size=N/A time=00:13:17.71 bitrate=N/A speed=19.1x    frame=19351 fps=458 q=-0.0 size=N/A time=00:13:27.09 bitrate=N/A speed=19.1x    frame=19527 fps=456 q=-0.0 size=N/A time=00:13:34.43 bitrate=N/A speed=  19x    frame=19765 fps=456 q=-0.0 size=N/A time=00:13:44.36 bitrate=N/A speed=  19x    frame=19998 fps=456 q=-0.0 size=N/A time=00:13:54.08 bitrate=N/A speed=  19x    frame=20218 fps=456 q=-0.0 size=N/A time=00:14:03.25 bitrate=N/A speed=  19x    frame=20469 fps=456 q=-0.0 size=N/A time=00:14:13.72 bitrate=N/A speed=  19x    frame=20717 fps=457 q=-0.0 size=N/A time=00:14:24.07 bitrate=N/A speed=  19x    frame=20965 fps=457 q=-0.0 size=N/A time=00:14:34.41 bitrate=N/A speed=19.1x    frame=21185 fps=457 q=-0.0 size=N/A time=00:14:43.59 bitrate=N/A speed=  19x    frame=21440 fps=457 q=-0.0 size=N/A time=00:14:54.22 bitrate=N/A speed=19.1x    frame=21688 fps=457 q=-0.0 size=N/A time=00:15:04.57 bitrate=N/A speed=19.1x    frame=21948 fps=458 q=-0.0 size=N/A time=00:15:15.41 bitrate=N/A speed=19.1x    frame=22197 fps=458 q=-0.0 size=N/A time=00:15:25.79 bitrate=N/A speed=19.1x    frame=22430 fps=458 q=-0.0 size=N/A time=00:15:35.51 bitrate=N/A speed=19.1x    frame=22666 fps=458 q=-0.0 size=N/A time=00:15:45.36 bitrate=N/A speed=19.1x    frame=22926 fps=458 q=-0.0 size=N/A time=00:15:56.20 bitrate=N/A speed=19.1x    frame=23192 fps=459 q=-0.0 size=N/A time=00:16:07.29 bitrate=N/A speed=19.1x    frame=23441 fps=459 q=-0.0 size=N/A time=00:16:17.68 bitrate=N/A speed=19.2x    frame=23683 fps=459 q=-0.0 size=N/A time=00:16:27.77 bitrate=N/A speed=19.2x    frame=23898 fps=459 q=-0.0 size=N/A time=00:16:36.74 bitrate=N/A speed=19.1x    frame=24081 fps=458 q=-0.0 size=N/A time=00:16:44.37 bitrate=N/A speed=19.1x    frame=24330 fps=458 q=-0.0 size=N/A time=00:16:54.76 bitrate=N/A speed=19.1x    frame=24579 fps=458 q=-0.0 size=N/A time=00:17:05.14 bitrate=N/A speed=19.1x    frame=24838 fps=459 q=-0.0 size=N/A time=00:17:15.95 bitrate=N/A speed=19.1x    frame=25098 fps=459 q=-0.0 size=N/A time=00:17:26.79 bitrate=N/A speed=19.2x    frame=25317 fps=459 q=-0.0 size=N/A time=00:17:35.92 bitrate=N/A speed=19.1x    frame=25557 fps=459 q=-0.0 size=N/A time=00:17:45.93 bitrate=N/A speed=19.1x    frame=25793 fps=459 q=-0.0 size=N/A time=00:17:55.78 bitrate=N/A speed=19.1x    frame=26012 fps=459 q=-0.0 size=N/A time=00:18:04.91 bitrate=N/A speed=19.1x    frame=26234 fps=458 q=-0.0 size=N/A time=00:18:14.17 bitrate=N/A speed=19.1x    frame=26479 fps=459 q=-0.0 size=N/A time=00:18:24.39 bitrate=N/A speed=19.1x    frame=26721 fps=459 q=-0.0 size=N/A time=00:18:34.48 bitrate=N/A speed=19.1x    frame=26941 fps=458 q=-0.0 size=N/A time=00:18:43.66 bitrate=N/A speed=19.1x    frame=27179 fps=458 q=-0.0 size=N/A time=00:18:53.59 bitrate=N/A speed=19.1x    frame=27418 fps=458 q=-0.0 size=N/A time=00:19:03.55 bitrate=N/A speed=19.1x    frame=27638 fps=458 q=-0.0 size=N/A time=00:19:12.73 bitrate=N/A speed=19.1x    frame=27872 fps=458 q=-0.0 size=N/A time=00:19:22.49 bitrate=N/A speed=19.1x    frame=28097 fps=458 q=-0.0 size=N/A time=00:19:31.87 bitrate=N/A speed=19.1x    frame=28322 fps=458 q=-0.0 size=N/A time=00:19:41.26 bitrate=N/A speed=19.1x    frame=28568 fps=458 q=-0.0 size=N/A time=00:19:51.52 bitrate=N/A speed=19.1x    frame=28788 fps=458 q=-0.0 size=N/A time=00:20:00.69 bitrate=N/A speed=19.1x    frame=29017 fps=458 q=-0.0 size=N/A time=00:20:10.25 bitrate=N/A speed=19.1x    frame=29209 fps=457 q=-0.0 size=N/A time=00:20:18.25 bitrate=N/A speed=19.1x    frame=29457 fps=457 q=-0.0 size=N/A time=00:20:28.60 bitrate=N/A speed=19.1x    frame=29700 fps=457 q=-0.0 size=N/A time=00:20:38.73 bitrate=N/A speed=19.1x    frame=29942 fps=457 q=-0.0 size=N/A time=00:20:48.83 bitrate=N/A speed=19.1x    frame=30183 fps=457 q=-0.0 size=N/A time=00:20:58.88 bitrate=N/A speed=19.1x    frame=30421 fps=457 q=-0.0 size=N/A time=00:21:08.80 bitrate=N/A speed=19.1x    frame=30675 fps=458 q=-0.0 size=N/A time=00:21:19.40 bitrate=N/A speed=19.1x    frame=30891 fps=457 q=-0.0 size=N/A time=00:21:28.41 bitrate=N/A speed=19.1x    frame=31135 fps=458 q=-0.0 size=N/A time=00:21:38.58 bitrate=N/A speed=19.1x    frame=31378 fps=458 q=-0.0 size=N/A time=00:21:48.72 bitrate=N/A speed=19.1x    frame=31630 fps=458 q=-0.0 size=N/A time=00:21:59.23 bitrate=N/A speed=19.1x    frame=31871 fps=458 q=-0.0 size=N/A time=00:22:09.28 bitrate=N/A speed=19.1x    frame=32122 fps=458 q=-0.0 size=N/A time=00:22:19.75 bitrate=N/A speed=19.1x    frame=32362 fps=458 q=-0.0 size=N/A time=00:22:29.76 bitrate=N/A speed=19.1x    frame=32582 fps=458 q=-0.0 size=N/A time=00:22:38.94 bitrate=N/A speed=19.1x    frame=32774 fps=457 q=-0.0 size=N/A time=00:22:46.94 bitrate=N/A speed=19.1x    frame=32974 fps=457 q=-0.0 size=N/A time=00:22:55.29 bitrate=N/A speed=19.1x    frame=33156 fps=456 q=-0.0 size=N/A time=00:23:02.88 bitrate=N/A speed=  19x    frame=33366 fps=456 q=-0.0 size=N/A time=00:23:11.64 bitrate=N/A speed=  19x    frame=33605 fps=456 q=-0.0 size=N/A time=00:23:21.60 bitrate=N/A speed=  19x    frame=33798 fps=455 q=-0.0 size=N/A time=00:23:29.65 bitrate=N/A speed=  19x    frame=34006 fps=455 q=-0.0 size=N/A time=00:23:38.33 bitrate=N/A speed=  19x    frame=34232 fps=455 q=-0.0 size=N/A time=00:23:47.75 bitrate=N/A speed=  19x    frame=34450 fps=455 q=-0.0 size=N/A time=00:23:56.85 bitrate=N/A speed=  19x    [Parsed_psnr_10 @ 000001fc372f45c0] PSNR y:48.181011 u:50.913706 v:50.305047 average:48.847660 min:28.337028 max:inf
[out#0/null @ 000001fc35d74ac0] video:14827KiB audio:269856KiB subtitle:0KiB other streams:0KiB global headers:0KiB muxing overhead: unknown
frame=34506 fps=455 q=-0.0 Lsize=N/A time=00:23:59.18 bitrate=N/A speed=  19x    
